<svg width="0" height="0" class="hidden">
  <symbol id="chevron" xmlns="http://www.w3.org/2000/svg" viewBox="0 0 51 51">
    <defs></defs>
    <circle cx="25.5" cy="25.5" r="25.5"></circle>
    <rect x="24.4" y="27.9" width="1.6" height="15.24" rx="0.8" transform="matrix(0.78, -0.63, 0.63, 0.78, -21.26, 15.39)"></rect>
    <rect x="33.3" y="27.9" width="1.6" height="15.24" rx="0.8" transform="translate(24 -21.9) rotate(37.3)"></rect>
  </symbol>
  <symbol version="1.1" id="clock" xmlns="http://www.w3.org/2000/svg" xmlns:xlink="http://www.w3.org/1999/xlink" x="0px" y="0px" xml:space="preserve" viewBox="0 0 501.656 501.656">
    <g>
      <g>
        <path d="M342.512,328h-200c-2.122,0-4.156,0.844-5.656,2.344l-96,96l11.312,11.312L145.824,344h187.888
			c-1.664,9.496-6.888,24-23.2,24h-88v16h88c31.64,0,40-31.4,40-48C350.512,331.582,346.93,328,342.512,328z"></path>
      </g>
    </g>
    <g>
      <g>
        <path d="M444.168,274.344c-3.124-3.123-8.188-3.123-11.312,0l-72,72l11.312,11.312l65.712-65.712
			c10.828,14.37,8.629,34.68-5.024,46.4L339.2,432H174.512c-2.122,0-4.156,0.844-5.656,2.344l-56,56l11.312,11.312L177.824,448
			h164.688c2.122,0,4.156-0.844,5.656-2.344l96-96C473.96,319.864,457.192,287.368,444.168,274.344z"></path>
      </g>
    </g>
    <g>
      <g>
        <path d="M262.512,0c-83.947,0-152,68.053-152,152s68.053,152,152,152c83.909-0.093,151.907-68.091,152-152
			C414.512,68.053,346.459,0,262.512,0z M262.512,288c-75.111,0-136-60.889-136-136s60.89-136,136-136
			c75.076,0.084,135.916,60.924,136,136C398.512,227.111,337.623,288,262.512,288z"></path>
      </g>
    </g>
    <g>
      <g>
        <path d="M262.512,40c-61.856,0-112,50.144-112,112s50.145,112,112,112c61.828-0.066,111.934-50.172,112-112
			C374.512,90.144,324.368,40,262.512,40z M270.512,247.666V224h-16v23.666c-46.637-3.848-83.817-41.028-87.666-87.666h23.666v-16
			h-23.666c3.849-46.637,41.029-83.817,87.666-87.666V80h16V56.343c46.612,3.893,83.764,41.045,87.657,87.657h-23.657v16h23.666
			C354.33,206.637,317.15,243.817,270.512,247.666z"></path>
      </g>
    </g>
    <g>
      <g>
        <path d="M284.18,162.33c1.494-3.129,2.333-6.631,2.333-10.33c0-10.449-6.68-19.334-16-22.629V96h-16v33.371
			c-9.32,3.295-16,12.18-16,22.629c-0.001,13.255,10.745,24,23.999,24c3.711,0,7.225-0.843,10.362-2.347l23.977,23.977
			l11.314-11.314L284.18,162.33z M262.512,160c-4.418,0-8-3.582-8-8c0-4.418,3.582-8,8-8c4.418,0,8,3.582,8,8
			C270.512,156.418,266.93,160,262.512,160z"></path>
      </g>
    </g>
    <g></g>
    <g></g>
    <g></g>
    <g></g>
    <g></g>
    <g></g>
    <g></g>
    <g></g>
    <g></g>
    <g></g>
    <g></g>
    <g></g>
    <g></g>
    <g></g>
    <g></g>
  </symbol>
  <symbol xmlns="http://www.w3.org/2000/svg" viewBox="0 0 64 64" id="computer">
    <g id="Computer-Engineer-Coding-Programing-Configulation">
      <path d="m13.293 14.293-3 3a1 1 0 0 0 0 1.414l3 3 1.414-1.414-2.293-2.293 2.293-2.293z"></path>
      <path d="m14.228 17h8.544v2h-8.544z" transform="matrix(.351 -.936 .936 .351 -4.85 29.002)"></path>
      <path d="m23.707 21.707 3-3a1 1 0 0 0 0-1.414l-3-3-1.414 1.414 2.293 2.293-2.293 2.293z"></path>
      <path d="m10 26h4v2h-4z"></path>
      <path d="m16 26h10v2h-10z"></path>
      <path d="m12 30h4v2h-4z"></path>
      <path d="m18 30h10v2h-10z"></path>
      <path d="m30 30h2v2h-2z"></path>
      <path d="m12 34h4v2h-4z"></path>
      <path d="m18 34h10v2h-10z"></path>
      <path d="m30 34h2v2h-2z"></path>
      <path d="m61.142 13.01-2.682-.383a10.86 10.86 0 0 0 -.679-1.639l1.625-2.166a1 1 0 0 0 -.093-1.307l-2.828-2.828a1 1 0 0 0 -1.306-.093l-2.167 1.624a10.9 10.9 0 0 0 -1.639-.678l-.383-2.682a1 1 0 0 0 -.99-.858h-4a1 1 0 0 0 -.99.858l-.383 2.682a10.855 10.855 0 0 0 -1.639.678l-2.167-1.624a1 1 0 0 0 -1.306.093l-2.828 2.828a1 1 0 0 0 -.093 1.307l1.625 2.166a10.86 10.86 0 0 0 -.679 1.639l-2.682.383a1 1 0 0 0 -.858.99v4a1 1 0 0 0 .858.99l2.682.383a10.86 10.86 0 0 0 .679 1.639l-1.625 2.166a1 1 0 0 0 .093 1.307l2.828 2.828a1 1 0 0 0 1.306.093l2.167-1.624a10.855 10.855 0 0 0 1.639.678l.383 2.682a1 1 0 0 0 .99.858h4a1 1 0 0 0 .99-.858l.383-2.682a10.9 10.9 0 0 0 1.639-.678l2.167 1.624a1 1 0 0 0 1.306-.093l2.828-2.828a1 1 0 0 0 .093-1.307l-1.625-2.166a10.86 10.86 0 0 0 .679-1.639l2.682-.383a1 1 0 0 0 .858-.99v-4a1 1 0 0 0 -.858-.99zm-1.142 4.123-2.463.352a1 1 0 0 0 -.827.742 8.923 8.923 0 0 1 -.977 2.357 1 1 0 0 0 .061 1.111l1.492 1.99-1.6 1.6-1.991-1.492a1 1 0 0 0 -1.11-.06 8.859 8.859 0 0 1 -2.356.975 1 1 0 0 0 -.744.828l-.352 2.464h-2.266l-.351-2.463a1 1 0 0 0 -.744-.828 8.859 8.859 0 0 1 -2.356-.975 1 1 0 0 0 -1.11.06l-1.991 1.492-1.6-1.6 1.492-1.99a1 1 0 0 0 .061-1.111 8.923 8.923 0 0 1 -.977-2.357 1 1 0 0 0 -.827-.742l-2.464-.353v-2.266l2.463-.352a1 1 0 0 0 .827-.742 8.923 8.923 0 0 1 .977-2.357 1 1 0 0 0 -.061-1.111l-1.492-1.99 1.6-1.6 1.991 1.492a1 1 0 0 0 1.11.06 8.859 8.859 0 0 1 2.356-.975 1 1 0 0 0 .744-.828l.352-2.464h2.266l.351 2.463a1 1 0 0 0 .744.828 8.859 8.859 0 0 1 2.356.975 1 1 0 0 0 1.11-.06l1.991-1.492 1.6 1.6-1.492 1.99a1 1 0 0 0 -.061 1.111 8.923 8.923 0 0 1 .977 2.357 1 1 0 0 0 .827.742l2.464.353z"></path>
      <path d="m48 10a6 6 0 1 0 6 6 6.006 6.006 0 0 0 -6-6zm0 10a4 4 0 1 1 4-4 4 4 0 0 1 -4 4z"></path>
      <path d="m52 40h-48v-25a3 3 0 0 1 3-3h28v-2h-28a5.006 5.006 0 0 0 -5 5v30a5.006 5.006 0 0 0 5 5h12.867l-.75 6h-2.117a2 2 0 0 0 -2 2v2a2 2 0 0 0 2 2h22a2 2 0 0 0 2-2v-2a2 2 0 0 0 -2-2h-2.117l-.75-6h12.867a5.006 5.006 0 0 0 5-5v-16h-2zm-13 20h-22v-2h22zm-4.133-4h-13.734l.75-6h12.234zm14.133-8h-42a3 3 0 0 1 -3-3v-3h48v3a3 3 0 0 1 -3 3z"></path>
      <path d="m46 44h2v2h-2z"></path>
    </g>
  </symbol>
  <symbol id="computer-user" xmlns="http://www.w3.org/2000/svg" viewBox="0 0 107.47 122.88">
    <defs></defs>
    <title>computer-user</title>
    <path d="M53.67,108.33a5.6,5.6,0,1,1-5.59,5.6,5.6,5.6,0,0,1,5.59-5.6ZM39.3,76.42c7.28,8.18,23.77,6.74,29.86,0a56.89,56.89,0,0,1-4.22-5.7l-.84-1.22a17.5,17.5,0,0,1-10.13,3,17,17,0,0,1-11.08-4c-.83,2.48-2,5.89-3.22,7.52a1.8,1.8,0,0,1-.37.36ZM10,90.92a4,4,0,0,0-3.73,4.66l3.53,27.3h-9c0-14.58-5.17-32.46,10.09-41,5.68-3.17,20.32-4.24,26.7-8.43a54.08,54.08,0,0,0,2.71-7.08c.07-.22-.05.14.06-.19a56,56,0,0,1-6.1-8.43L29,49.42c-1.93-2.87-2.93-5.5-3-7.65A6,6,0,0,1,26.57,39a5.07,5.07,0,0,1,1.81-2.1,6.58,6.58,0,0,1,1.27-.65,133.75,133.75,0,0,1-.25-15,20.68,20.68,0,0,1,.65-3.41C32,11,37.89,6,44.65,3.66,47.93,2.53,46.66-.17,50,0c7.86.43,20,5.49,24.63,10.86,6.52,7.52,4.84,16.78,4.62,26h0A3.83,3.83,0,0,1,82,39.69c.42,1.66,0,4-1.45,7.19h0s0,.11-.09.17l-6,9.87c-2.31,3.81-4.66,7.62-7.79,10.56l-.16.14,1,1.4c1,1.53,2.22,3.27,3.32,4.63,6.52,4,20.85,5.14,26.46,8.26,14,7.82,9.23,27.13,10,41H98.38l3.53-27.3a4,4,0,0,0-3.73-4.66ZM32.68,38.71A5.25,5.25,0,0,0,30,39.4a2.2,2.2,0,0,0-.76.88A3.23,3.23,0,0,0,29,41.69c.05,1.6.89,3.69,2.51,6.1l0,0h0l5.26,8.37c2.11,3.35,4.33,6.77,7.07,9.28A14.45,14.45,0,0,0,54,69.55a14.88,14.88,0,0,0,10.68-4.24c2.84-2.66,5.07-6.29,7.28-9.93l5.92-9.76c1.11-2.52,1.51-4.21,1.26-5.19-.15-.59-.8-.88-1.91-.94q-.36,0-.72,0a8,8,0,0,0-.83,0,1.75,1.75,0,0,1-.46,0,8.09,8.09,0,0,1-1.62-.09l2-9c-15.06,2.37-26.33-8.82-42.25-2.24L34.5,38.79a9,9,0,0,1-1.82-.08Z"></path>
  </symbol>
  <symbol version="1.1" id="east-west-north-south-symbol" xmlns="http://www.w3.org/2000/svg" xmlns:xlink="http://www.w3.org/1999/xlink" x="0px" y="0px" xml:space="preserve" viewBox="0 0 122.28 122.57">
    <g>
      <path d="M74.26,51.37l-6.45,6.2l-2.39,2.56l0.1,0.11h41L74.26,51.37L74.26,51.37z M15.71,55.23v0.27c-0.2,0.02-0.37,0.07-0.5,0.17 c-0.14,0.1-0.26,0.25-0.36,0.44c-0.03,0.06-0.19,0.47-0.49,1.22l-3.32,8.75h-0.29l-2.62-6.9l-2.91,6.9H4.95l-3.5-8.66 c-0.35-0.88-0.6-1.41-0.74-1.6C0.57,55.64,0.33,55.53,0,55.5v-0.27h4.59v0.27c-0.37,0.01-0.62,0.07-0.74,0.17 c-0.12,0.1-0.18,0.23-0.18,0.38c0,0.2,0.13,0.62,0.38,1.27l2.08,5.15l1.68-4.06l-0.42-1.1c-0.24-0.62-0.42-1.03-0.55-1.23 c-0.13-0.21-0.28-0.35-0.45-0.44c-0.17-0.09-0.42-0.13-0.74-0.13v-0.27h5.09v0.27c-0.36,0.01-0.62,0.03-0.77,0.09 c-0.11,0.03-0.19,0.1-0.26,0.18c-0.06,0.09-0.09,0.19-0.09,0.3c0,0.12,0.11,0.49,0.35,1.11l1.93,5.02l1.73-4.54 c0.18-0.47,0.29-0.79,0.34-0.97c0.04-0.17,0.06-0.33,0.06-0.48c0-0.22-0.07-0.38-0.22-0.51c-0.14-0.12-0.42-0.19-0.83-0.2v-0.27 H15.71L15.71,55.23z M116.68,55.96v4.32h0.21c0.67,0,1.16-0.21,1.47-0.63c0.3-0.42,0.5-1.04,0.58-1.86h0.3v5.55h-0.3 c-0.06-0.61-0.19-1.1-0.39-1.49c-0.2-0.39-0.43-0.65-0.7-0.78s-0.65-0.2-1.16-0.2v2.98c0,0.59,0.02,0.94,0.08,1.07 c0.05,0.13,0.14,0.24,0.28,0.32c0.14,0.08,0.36,0.13,0.66,0.13h0.63c0.99,0,1.78-0.23,2.38-0.69c0.6-0.46,1.03-1.15,1.29-2.09h0.29 l-0.48,3.37h-9.15v-0.27H113c0.31,0,0.55-0.06,0.74-0.17c0.14-0.07,0.24-0.2,0.31-0.38c0.06-0.13,0.08-0.46,0.08-0.99v-6.99 c0-0.48-0.01-0.78-0.04-0.89c-0.05-0.18-0.15-0.33-0.29-0.42c-0.2-0.15-0.47-0.22-0.81-0.22h-0.35v-0.27h8.86v3.14h-0.3 c-0.15-0.77-0.36-1.32-0.63-1.65c-0.27-0.33-0.66-0.58-1.15-0.74c-0.29-0.09-0.83-0.14-1.63-0.14H116.68L116.68,55.96z M67.41,111.48l0.08,3.54h-0.32c-0.15-0.89-0.52-1.6-1.11-2.14c-0.59-0.54-1.23-0.81-1.92-0.81c-0.53,0-0.95,0.14-1.26,0.43 c-0.31,0.28-0.47,0.61-0.47,0.98c0,0.23,0.06,0.44,0.17,0.63c0.15,0.24,0.39,0.48,0.73,0.72c0.25,0.17,0.81,0.48,1.7,0.91 c1.24,0.61,2.08,1.19,2.51,1.73c0.43,0.54,0.64,1.16,0.64,1.86c0,0.89-0.35,1.65-1.04,2.28c-0.69,0.64-1.57,0.96-2.63,0.96 c-0.33,0-0.65-0.04-0.95-0.1c-0.3-0.07-0.67-0.19-1.12-0.38c-0.25-0.1-0.46-0.15-0.62-0.15c-0.14,0-0.28,0.05-0.43,0.16 c-0.15,0.11-0.27,0.27-0.37,0.48h-0.27v-4h0.27c0.23,1.12,0.67,1.98,1.32,2.57c0.66,0.59,1.36,0.89,2.12,0.89 c0.58,0,1.05-0.16,1.4-0.48c0.35-0.32,0.52-0.69,0.52-1.11c0-0.25-0.07-0.49-0.2-0.72c-0.13-0.23-0.33-0.46-0.61-0.67 c-0.27-0.21-0.75-0.48-1.44-0.82c-0.97-0.47-1.66-0.88-2.08-1.21c-0.42-0.33-0.74-0.71-0.97-1.12s-0.34-0.87-0.34-1.36 c0-0.85,0.31-1.56,0.93-2.16c0.62-0.59,1.4-0.89,2.34-0.89c0.34,0,0.68,0.04,1,0.12c0.25,0.06,0.54,0.18,0.9,0.35 c0.35,0.17,0.6,0.25,0.74,0.25c0.14,0,0.24-0.04,0.32-0.12c0.08-0.08,0.15-0.28,0.22-0.6H67.41L67.41,111.48z M62.72,0l5.22,6.57 V2.02c0-0.64-0.09-1.07-0.27-1.3c-0.25-0.31-0.67-0.45-1.26-0.44V0h3.5v0.27C69.46,0.33,69.16,0.41,69,0.5 c-0.15,0.09-0.27,0.24-0.36,0.45c-0.09,0.21-0.13,0.57-0.13,1.07v8.83h-0.26l-7.16-8.84v6.76c0,0.61,0.14,1.03,0.42,1.25 c0.28,0.22,0.6,0.32,0.96,0.32h0.25v0.27h-3.78v-0.27c0.59-0.01,0.99-0.13,1.22-0.36c0.23-0.24,0.34-0.64,0.34-1.21v-7.5L60.3,0.99 c-0.22-0.29-0.42-0.48-0.59-0.57c-0.17-0.09-0.42-0.14-0.74-0.15V0H62.72L62.72,0z M63.3,60.28H22.35l32.65,8.97l1.6-1.54 l6.84-7.31L63.3,60.28L63.3,60.28z M55.45,50.34l8.72,9.07l0.08-0.08v-41L55.45,50.34L55.45,50.34z M53.99,70.21l-34.06-9.36 l0-1.15l34.36-9.61l9.39-34.18l1.15,0l9.58,34.26l34.52,9.49l0,1.15l-34.47,9.64l-9.6,34.94l-1.15,0L53.9,70.3L53.99,70.21 L53.99,70.21z M64.29,61.97v41L73.3,70.2l-8.9-8.32L64.29,61.97L64.29,61.97z"></path>
    </g>
  </symbol>
  <symbol xmlns="http://www.w3.org/2000/svg" viewBox="0 0 512 512" id="easy">
    <g id="Out_line">
      <path d="m184 304h-112a8.00008 8.00008 0 0 0 -8 8v96a8.00008 8.00008 0 0 0 8 8h112a8.00008 8.00008 0 0 0 8-8v-96a8.00008 8.00008 0 0 0 -8-8zm-8 96h-96v-80h96z"></path>
      <path d="m96 336h32v16h-32z"></path>
      <path d="m128 368h32v16h-32z"></path>
      <path d="m380 64h-244v-40a7.99985 7.99985 0 0 0 -12.87793-6.34082l-104 80a8 8 0 0 0 0 12.68164l104 80a7.99985 7.99985 0 0 0 12.87793-6.34082v-40h216a64.07239 64.07239 0 0 1 64 64v144a63.89737 63.89737 0 0 1 -48 61.99341v-181.99341a8.00008 8.00008 0 0 0 -8-8h-336a8.00008 8.00008 0 0 0 -8 8v256a8.00008 8.00008 0 0 0 8 8h356a116.13134 116.13134 0 0 0 116-116v-200a116.13134 116.13134 0 0 0 -116-116zm-28 176v192h-112v-192zm-208 0v32h-32v-32zm-112 0h64v40a8.00008 8.00008 0 0 0 8 8h48a8.00008 8.00008 0 0 0 8-8v-40h64v192h-192zm448 140a100.113 100.113 0 0 1 -100 100h-348v-32h328a8.00008 8.00008 0 0 0 8-8v-9.605a79.86446 79.86446 0 0 0 64-78.395v-144a80.09041 80.09041 0 0 0 -80-80h-224a8.00008 8.00008 0 0 0 -8 8v31.75293l-82.87891-63.75293 82.87891-63.75293v31.75293a8.00008 8.00008 0 0 0 8 8h252a100.113 100.113 0 0 1 100 100z"></path>
      <path d="m320 400h16v16h-16z"></path>
      <path d="m288 400h16v16h-16z"></path>
      <path d="m256 400h16v16h-16z"></path>
    </g>
  </symbol>
  <symbol version="1.1" id="expand" xmlns="http://www.w3.org/2000/svg" xmlns:xlink="http://www.w3.org/1999/xlink" x="0px" y="0px" xml:space="preserve" viewBox="0 0 122.88 122.87">
    <g>
      <path d="M122.88,77.63v41.12c0,2.28-1.85,4.12-4.12,4.12H77.33v-9.62h35.95c0-12.34,0-23.27,0-35.62H122.88L122.88,77.63z M77.39,9.53V0h41.37c2.28,0,4.12,1.85,4.12,4.12v41.18h-9.63V9.53H77.39L77.39,9.53z M9.63,45.24H0V4.12C0,1.85,1.85,0,4.12,0h41 v9.64H9.63V45.24L9.63,45.24z M45.07,113.27v9.6H4.12c-2.28,0-4.12-1.85-4.12-4.13V77.57h9.63v35.71H45.07L45.07,113.27z"></path>
    </g>
  </symbol>
  <symbol id="freelancer-freelance" xmlns="http://www.w3.org/2000/svg" viewBox="0 0 102 122.88">
    <defs></defs>
    <title>freelancer-freelance</title>
    <path d="M48.29,66.57a14.5,14.5,0,0,0,2.94.3,13.9,13.9,0,0,0,8-2.34A18.76,18.76,0,0,0,61.12,63l1.07-1c3.42-3.25,5.88-5.59,5.4-11.27h0a1.74,1.74,0,0,1,.27-1.07,1.69,1.69,0,0,1,2.34-.48,3.11,3.11,0,0,0,.63.32,1.79,1.79,0,0,0,.46.11c.28,0,.27.12.32.08s0-.15.13-.44l1.66-4.74a2.94,2.94,0,0,0,.11-1.53.32.32,0,0,0-.12-.18,1.23,1.23,0,0,0-.62-.07,4.29,4.29,0,0,0-2.14.91,1.73,1.73,0,0,1-1.33.33,1.7,1.7,0,0,1-1.38-2c1.22-7.15.67-11.8-.84-14.95a12.47,12.47,0,0,0-5.47-5.52,22.29,22.29,0,0,1-12.47,4.8,19.26,19.26,0,0,0-9.84,3.44,9.22,9.22,0,0,0-3.64,4.52,11.55,11.55,0,0,0-.14,6.38,1.71,1.71,0,0,1-2.25,2l-1.21-.44c-1.31-.46-2.25-.69-2.58-.05a14.93,14.93,0,0,0,.27,5A3.63,3.63,0,0,0,31,49.37a1.16,1.16,0,0,0,.56.14,3.62,3.62,0,0,0,1-.16,1.59,1.59,0,0,1,.5-.09,1.69,1.69,0,0,1,1.73,1.65c.14,5.8,2.73,8,5.88,10.74L42,62.82a17.47,17.47,0,0,0,6.3,3.75ZM51,100.7a7.74,7.74,0,1,1-7.74,7.74A7.75,7.75,0,0,1,51,100.7ZM63.4,65.46l.65.94c1,1.45,2.11,3.1,3.15,4.39,6.19,3.84,19.79,4.88,25.11,7.84,13.54,7.55,8.6,25.88,9.58,39.08-.3,3.12-2.07,4.9-5.54,5.17H92.59l4.12-31.27a3.76,3.76,0,0,0-3.54-4.43H52.73C54,77.89,65.38,77.84,65.66,73.5a56.66,56.66,0,0,1-4-5.45l-.47-.7a15.72,15.72,0,0,1-9.34,3.17,17.91,17.91,0,0,1-11.17-4.4,32.11,32.11,0,0,1-3,7,1.61,1.61,0,0,1-.35.34c.47,3.82,13.56,8.7,14.35,13.76H9.5A3.76,3.76,0,0,0,6,91.61l4.12,31.27H6.32c-3.47-.27-5.24-2-5.53-5.17.18-14-5.13-30.88,9.58-39.08,5.39-3,19.28-4,25.34-8A51,51,0,0,0,38.24,64c-3.34-2.87-6.11-5.36-6.73-11.15a4.48,4.48,0,0,1-2.16-.58A6.64,6.64,0,0,1,26.47,48a18.6,18.6,0,0,1-.31-6.55,1.91,1.91,0,0,1,.11-.41c.7-2,1.72-2.73,3-2.85l-.38-.25c-.52-6.46,1-17.67-6-19.79C36.19,1.7,51.49-7.23,63,7.37,76.65,8.09,82.24,29.53,71.76,39l-.05.41a6,6,0,0,1,.82-.12,4.44,4.44,0,0,1,2.46.47,3.57,3.57,0,0,1,1.76,2.13,6.17,6.17,0,0,1-.08,3.5L74.94,50.3a3.88,3.88,0,0,1-1.21,2,3.59,3.59,0,0,1-2.6.65H71c-.21,5.48-2.92,8.06-6.52,11.48l-1.06,1-.06.06Z"></path>
  </symbol>
  <symbol id="growth" enable-background="new 0 0 512 512" xmlns="http://www.w3.org/2000/svg" viewBox="0 0 512 512">
    <g>
      <g>
        <path d="m504.5 480.837h-38.97v-240.347c0-4.142-3.357-7.5-7.5-7.5s-7.5 3.358-7.5 7.5v240.347h-49.648l-.002-318.357h49.65v43.01c0 4.142 3.357 7.5 7.5 7.5s7.5-3.358 7.5-7.5v-50.51c0-4.142-3.357-7.5-7.5-7.5h-64.65c-4.143 0-7.5 3.358-7.5 7.5v43.012h-57.148c-4.143 0-7.5 3.358-7.5 7.5v43.008h-57.15c-4.143 0-7.5 3.358-7.5 7.5v43.008h-57.15c-4.143 0-7.5 3.358-7.5 7.5v43.008h-57.15c-4.143 0-7.5 3.358-7.5 7.5v38.964h-57.152c-4.143 0-7.5 3.358-7.5 7.5v20.89c0 4.142 3.357 7.5 7.5 7.5s7.5-3.358 7.5-7.5v-13.39h49.65v69.857h-49.65v-21.467c0-4.142-3.357-7.5-7.5-7.5s-7.5 3.358-7.5 7.5v21.467h-31.467v-473.337c0-4.142-3.357-7.5-7.5-7.5s-7.5 3.358-7.5 7.5v38.967h-8.663c-4.143 0-7.5 3.358-7.5 7.5s3.357 7.5 7.5 7.5h8.663v49.65h-8.663c-4.143 0-7.5 3.358-7.5 7.5s3.357 7.5 7.5 7.5h8.663v49.65h-8.663c-4.143 0-7.5 3.358-7.5 7.5s3.357 7.5 7.5 7.5h8.663v49.65h-8.663c-4.143 0-7.5 3.358-7.5 7.5s3.357 7.5 7.5 7.5h8.663v49.651h-8.663c-4.143 0-7.5 3.358-7.5 7.5s3.357 7.5 7.5 7.5h8.663v49.65h-8.663c-4.143 0-7.5 3.358-7.5 7.5s3.357 7.5 7.5 7.5h8.663v49.65h-8.663c-4.143 0-7.5 3.358-7.5 7.5s3.357 7.5 7.5 7.5h8.663v38.967c0 4.142 3.357 7.5 7.5 7.5h38.967v8.663c0 4.142 3.357 7.5 7.5 7.5s7.5-3.358 7.5-7.5v-8.66h49.65v8.66c0 4.142 3.357 7.5 7.5 7.5s7.5-3.358 7.5-7.5v-8.663h49.65v8.663c0 4.142 3.357 7.5 7.5 7.5s7.5-3.358 7.5-7.5v-8.663h49.65v8.663c0 4.142 3.357 7.5 7.5 7.5s7.5-3.358 7.5-7.5v-8.663h49.65v8.663c0 4.142 3.357 7.5 7.5 7.5s7.5-3.358 7.5-7.5v-8.663h49.65v8.663c0 4.142 3.357 7.5 7.5 7.5s7.5-3.358 7.5-7.5v-8.66h49.65v8.66c0 4.142 3.357 7.5 7.5 7.5s7.5-3.358 7.5-7.5v-8.663h38.97c4.143 0 7.5-3.358 7.5-7.5s-3.357-7.498-7.5-7.498zm-362.22-116.321h49.65v116.321h-49.65zm64.651-50.508h49.65v166.829h-49.65zm64.65-50.508h49.65v217.337h-49.65zm64.65-50.508h49.648v267.846h-49.648z"></path>
        <path d="m86.1 338.44c6.323 0 12.267-2.46 16.734-6.927l112.91-112.91c2.929-2.929 2.929-7.678 0-10.606-2.93-2.929-7.678-2.929-10.607 0l-112.909 112.909c-1.635 1.634-3.811 2.534-6.128 2.534-2.311 0-4.482-.9-6.116-2.533-1.64-1.64-2.543-3.817-2.543-6.13 0-2.311.901-4.484 2.543-6.123l263.521-263.52c2.145-2.145 2.786-5.371 1.625-8.173-1.16-2.803-3.896-4.63-6.929-4.63h-23.61c-4.775 0-8.66-3.889-8.66-8.67 0-4.775 3.885-8.66 8.66-8.66h62.63c4.775 0 8.66 3.885 8.66 8.66v62.63c0 4.781-3.885 8.67-8.66 8.67s-8.66-3.889-8.66-8.67v-23.611c0-3.034-1.827-5.768-4.63-6.929-2.804-1.161-6.027-.518-8.174 1.626l-125.88 125.88c-2.929 2.929-2.929 7.678 0 10.606 2.93 2.929 7.678 2.929 10.607 0l113.076-113.076v5.503c0 13.052 10.614 23.67 23.66 23.67s23.66-10.618 23.66-23.67v-62.63c0-13.046-10.614-23.66-23.66-23.66h-62.63c-13.046 0-23.66 10.614-23.66 23.66 0 13.052 10.614 23.67 23.66 23.67h5.504l-250.714 250.713c-4.475 4.469-6.939 10.412-6.939 16.733 0 6.32 2.463 12.264 6.937 16.737 4.466 4.467 10.405 6.927 16.722 6.927z"></path>
      </g>
    </g>
  </symbol>
  <symbol version="1.1" id="info-circle-line" xmlns="http://www.w3.org/2000/svg" xmlns:xlink="http://www.w3.org/1999/xlink" x="0px" y="0px" enable-background="new 0 0 122.88 122.881" xml:space="preserve" viewBox="0 0 122.88 122.881">
    <g>
      <path d="M44.541,97.197V86.404c0-1.645,1.333-2.977,2.978-2.977h1.438V65.344h-1.701c-1.645,0-2.979-1.334-2.979-2.979v-11.48 c0-1.645,1.334-2.978,2.979-2.978h21.175c2.018,0,3.538,0.855,4.565,2.558c0.735,1.221,1.103,2.849,1.103,4.88v28.082h1.526 c1.645,0,2.979,1.332,2.979,2.977v10.793c0,1.645-1.334,2.979-2.979,2.979H47.519C45.874,100.176,44.541,98.842,44.541,97.197 L44.541,97.197z M61.44,5.956c-3.841,0-7.565,0.361-11.169,1.083c-3.61,0.722-7.09,1.799-10.439,3.229l0.002,0.004 c-3.412,1.467-6.585,3.181-9.515,5.147c-2.938,1.971-5.661,4.21-8.165,6.724l-0.012,0.011l0,0 c-2.513,2.504-4.752,5.227-6.724,8.165c-1.966,2.93-3.68,6.104-5.147,9.515c-0.021,0.048-0.042,0.095-0.065,0.142 c-1.4,3.304-2.456,6.737-3.168,10.295c-0.721,3.604-1.082,7.328-1.082,11.168c0,3.842,0.361,7.564,1.082,11.17 c0.723,3.609,1.799,7.09,3.229,10.438h0.004c1.467,3.41,3.182,6.584,5.147,9.514c1.971,2.938,4.21,5.662,6.724,8.166l0.011,0.012 l0-0.002c2.504,2.514,5.227,4.754,8.165,6.725c2.93,1.967,6.104,3.68,9.515,5.146c0.048,0.021,0.095,0.043,0.141,0.066 c3.305,1.398,6.737,2.455,10.296,3.168c3.604,0.721,7.328,1.082,11.169,1.082s7.564-0.361,11.169-1.082 c3.609-0.723,7.09-1.799,10.438-3.229l-0.002-0.006c3.412-1.467,6.586-3.18,9.516-5.146c2.938-1.971,5.66-4.211,8.164-6.725 l0.013-0.01h-0.001c2.514-2.504,4.753-5.229,6.724-8.166c1.966-2.93,3.681-6.104,5.147-9.514c0.021-0.049,0.043-0.096,0.065-0.143 c1.399-3.305,2.456-6.736,3.168-10.295c0.722-3.605,1.083-7.328,1.083-11.17c0-3.84-0.361-7.564-1.083-11.168 c-0.723-3.61-1.799-7.09-3.229-10.438l-0.004,0.001c-1.467-3.412-3.182-6.585-5.147-9.515c-1.971-2.938-4.21-5.661-6.724-8.165 l-0.011-0.012l-0.001,0c-2.504-2.514-5.227-4.752-8.164-6.724c-2.93-1.966-6.104-3.681-9.516-5.147 c-0.048-0.021-0.095-0.043-0.141-0.065c-3.305-1.399-6.737-2.456-10.296-3.168C69.005,6.317,65.281,5.956,61.44,5.956L61.44,5.956z M49.108,1.199C53.1,0.4,57.212,0,61.44,0s8.34,0.4,12.332,1.199c3.927,0.786,7.748,1.967,11.461,3.541 c0.055,0.02,0.108,0.042,0.163,0.064c3.7,1.592,7.191,3.483,10.469,5.683c3.267,2.192,6.291,4.678,9.066,7.462 c2.784,2.775,5.27,5.8,7.462,9.067c2.199,3.276,4.091,6.768,5.683,10.468l-0.005,0.002l0.005,0.01 c1.606,3.76,2.809,7.631,3.605,11.612c0.799,3.992,1.198,8.104,1.198,12.332c0,4.229-0.399,8.342-1.198,12.332 c-0.786,3.928-1.967,7.748-3.541,11.461c-0.02,0.055-0.041,0.109-0.064,0.164c-1.592,3.699-3.483,7.191-5.683,10.469 c-2.192,3.266-4.678,6.291-7.462,9.066c-2.775,2.783-5.8,5.27-9.066,7.461c-3.277,2.199-6.769,4.092-10.469,5.684l-0.002-0.004 l-0.011,0.004c-3.76,1.605-7.631,2.809-11.611,3.605c-3.992,0.799-8.104,1.199-12.332,1.199s-8.34-0.4-12.332-1.199 c-3.927-0.787-7.749-1.967-11.461-3.541c-0.055-0.02-0.109-0.041-0.163-0.064c-3.701-1.592-7.192-3.484-10.469-5.684 c-3.267-2.191-6.291-4.678-9.066-7.461c-2.784-2.775-5.27-5.801-7.462-9.066c-2.199-3.277-4.091-6.77-5.683-10.469l0.004-0.002 l-0.004-0.01c-1.607-3.76-2.809-7.633-3.605-11.613C0.4,69.781,0,65.668,0,61.439c0-4.228,0.4-8.34,1.199-12.332 c0.786-3.927,1.966-7.748,3.541-11.46c0.02-0.055,0.041-0.109,0.064-0.164c1.592-3.7,3.483-7.192,5.683-10.468 c2.192-3.267,4.678-6.292,7.462-9.067c2.775-2.784,5.799-5.27,9.066-7.462c3.277-2.199,6.768-4.091,10.469-5.683l0.002,0.004 l0.01-0.004C41.256,3.197,45.128,1.995,49.108,1.199L49.108,1.199z M50.497,89.328v4.891h22.149v-4.891 c-0.491-0.08-0.973-0.252-1.444-0.514c-0.498-0.273-0.967-0.635-1.412-1.078c-0.439-0.439-0.801-0.916-1.081-1.43 c-0.375-0.686-0.566-1.385-0.566-2.094V55.346c0-0.659-0.04-1.153-0.12-1.482H50.234v5.543c0.599,0.059,1.181,0.251,1.743,0.574 l-0.005,0.009l0.005,0.003c0.423,0.244,0.832,0.564,1.224,0.96c0.065,0.06,0.13,0.123,0.191,0.19 c0.426,0.465,0.762,0.928,1.001,1.389c0.345,0.662,0.521,1.338,0.521,2.027v19.654c0,0.619-0.14,1.227-0.414,1.822 c-0.032,0.078-0.068,0.156-0.108,0.232c-0.246,0.473-0.588,0.938-1.022,1.398c-0.441,0.469-0.907,0.844-1.401,1.125 C51.488,89.064,50.999,89.244,50.497,89.328L50.497,89.328z M61.484,44.549c-1.631,0-3.141-0.245-4.533-0.735 c-1.441-0.509-2.722-1.273-3.844-2.296c-0.053-0.047-0.103-0.097-0.151-0.147c-1.085-1.014-1.903-2.184-2.457-3.508 c-0.571-1.365-0.854-2.86-0.854-4.48c0-1.616,0.283-3.119,0.855-4.501c0.585-1.416,1.453-2.654,2.607-3.708l0.06-0.053 c1.098-1,2.355-1.754,3.772-2.264c1.407-0.507,2.922-0.759,4.545-0.759c1.662,0,3.194,0.249,4.599,0.747 c1.453,0.516,2.741,1.292,3.864,2.329l0.001-0.001c1.154,1.054,2.022,2.292,2.608,3.708c0.571,1.382,0.854,2.885,0.854,4.501 c0,1.621-0.282,3.116-0.854,4.481c-0.58,1.386-1.449,2.604-2.613,3.65l0.005,0.005c-1.12,1.021-2.412,1.786-3.877,2.296 C64.66,44.305,63.132,44.549,61.484,44.549L61.484,44.549z M58.929,38.207c0.731,0.258,1.583,0.387,2.556,0.387 c1.014,0,1.892-0.128,2.633-0.387c0.688-0.239,1.298-0.601,1.829-1.085l0.005,0.005l0.019-0.017 c0.489-0.438,0.854-0.947,1.097-1.526c0.26-0.622,0.389-1.356,0.389-2.201c0-0.865-0.129-1.614-0.39-2.245 c-0.24-0.582-0.613-1.105-1.119-1.567l0.002-0.001l-0.025-0.022c-0.522-0.485-1.128-0.851-1.817-1.095 c-0.748-0.266-1.622-0.398-2.621-0.398c-0.979,0-1.828,0.129-2.544,0.387c-0.649,0.233-1.235,0.587-1.757,1.06 c-0.024,0.024-0.048,0.047-0.074,0.07c-0.506,0.462-0.878,0.985-1.119,1.567c-0.26,0.63-0.39,1.38-0.39,2.244 c0,0.844,0.129,1.579,0.389,2.2c0.223,0.533,0.549,1.006,0.98,1.419c0.047,0.038,0.094,0.078,0.139,0.119 C57.64,37.604,58.246,37.966,58.929,38.207L58.929,38.207z"></path>
    </g>
  </symbol>
  <symbol version="1.1" id="left-arrow" xmlns="http://www.w3.org/2000/svg" xmlns:xlink="http://www.w3.org/1999/xlink" x="0px" y="0px" xml:space="preserve" viewBox="0 0 59.414 59.414">
    <polygon points="45.268,1.414 43.854,0 14.146,29.707 43.854,59.414 45.268,58 16.975,29.707 "></polygon>
    <g></g>
    <g></g>
    <g></g>
    <g></g>
    <g></g>
    <g></g>
    <g></g>
    <g></g>
    <g></g>
    <g></g>
    <g></g>
    <g></g>
    <g></g>
    <g></g>
    <g></g>
  </symbol>
  <symbol version="1.1" id="mailbox" xmlns="http://www.w3.org/2000/svg" xmlns:xlink="http://www.w3.org/1999/xlink" x="0px" y="0px" enable-background="new 0 0 122.879 109.105" xml:space="preserve" viewBox="0 0 122.879 109.105">
    <g>
      <path d="M19.046,72.384c-1.504,0-2.723-1.219-2.723-2.724V64.02c0-1.504,1.219-2.723,2.723-2.723c1.504,0,2.724,1.219,2.724,2.723 v2.918h17.534h28.279V26.81c-1.508-6.206-4.098-11.113-7.817-14.661l-0.002-0.002l-0.002-0.003l-0.003-0.002l-0.003-0.002 l-0.002-0.002l-0.002-0.002c-0.049-0.047-0.099-0.094-0.148-0.14l-0.002-0.002l-0.002-0.002l-0.003-0.002l-0.003-0.002 l-0.002-0.002l-0.003-0.003l-0.002-0.002l-0.003-0.002l-0.002-0.002l-0.147-0.136l-0.003-0.002l-0.002-0.002l-0.003-0.003 l-0.003-0.002l-0.002-0.003l-0.003-0.002l-0.004-0.004l-0.003-0.002l-0.003-0.002l-0.003-0.002l-0.002-0.002l-0.002-0.002 c-0.052-0.047-0.104-0.094-0.155-0.141l-0.003-0.002l-0.003-0.003l-0.006-0.006l-0.002-0.002l-0.003-0.003l-0.003-0.002 l-0.005-0.005l-0.002-0.003l-0.002-0.002l-0.148-0.131l-0.002-0.002l-0.005-0.005l-0.002-0.002l-0.003-0.002l-0.002-0.002 l-0.008-0.007l-0.002-0.002l-0.002-0.002c-0.048-0.042-0.097-0.083-0.145-0.125l-0.002-0.002l-0.002-0.002l-0.002-0.002 l-0.003-0.002l-0.002-0.002l-0.002-0.002l-0.011-0.009l-0.002-0.002l-0.003-0.002l-0.005-0.005l-0.002-0.002l-0.003-0.002 l-0.002-0.002l-0.002-0.002l-0.146-0.124l-0.002-0.002l-0.002-0.002l-0.006-0.005l-0.007-0.006l-0.088-0.073l-0.092-0.076 l-0.08-0.065l-0.014-0.011l-0.017-0.014l-0.074-0.06l-0.097-0.077l-0.101-0.08l-0.007-0.005l-0.003-0.002L58.1,10.709l-0.002-0.002 l-0.002-0.002l-0.003-0.002l-0.149-0.116l-0.002-0.001l-0.002-0.002l-0.002-0.002l-0.006-0.005l-0.001-0.001l-0.115-0.087 l-0.008-0.006l-0.072-0.055l-0.002-0.001l-0.105-0.079l-0.091-0.067l-0.096-0.07l-0.101-0.073l-0.107-0.076l-0.088-0.063l-0.001,0 L56.998,9.9l-0.051-0.036l-0.003-0.002l-0.139-0.094l-0.065-0.044L56.612,9.64l-0.08-0.052l-0.12-0.078l-0.087-0.056l-0.129-0.082 l-0.074-0.046l-0.141-0.087l-0.016-0.009l-0.047-0.029L55.771,9.11l-0.002-0.002l-0.002-0.001l-0.067-0.041L55.586,9l-0.005-0.003 l-0.006-0.003l-0.094-0.055l-0.001,0l-0.002-0.002l-0.107-0.062l-0.01-0.006l-0.015-0.008L55.274,8.82l-0.156-0.088l-0.056-0.031 l-0.168-0.092l-0.05-0.027l-0.005-0.003l-0.161-0.086l-0.056-0.029l-0.149-0.079L54.39,8.342L54.387,8.34l-0.144-0.073 l-0.069-0.035l-0.16-0.08l-0.007-0.003l-0.056-0.028h0l-0.173-0.084l-0.007-0.003l-0.041-0.02l-0.004-0.002l-0.002-0.001 L53.56,7.934L53.55,7.93l-0.058-0.027L53.33,7.828L53.26,7.796l-0.172-0.077l-0.058-0.025l-0.175-0.076l-0.061-0.026l-0.17-0.072 l-0.002-0.001l-0.001,0l-0.066-0.028l-0.16-0.066L52.388,7.42L52.32,7.392l-0.003-0.001L52.314,7.39l-0.002-0.001l-0.003-0.001 l-0.003-0.001l-0.002-0.001L52.3,7.384l-0.003-0.001l-0.002-0.001l-0.097-0.039l-0.002-0.001L52.192,7.34l-0.003-0.001 l-0.002-0.001l-0.003-0.001L52.18,7.336l-0.002-0.001l-0.003-0.001l-0.003-0.001l-0.002-0.001L52.166,7.33l-0.003-0.001 L52.16,7.328l-0.003-0.001l-0.003-0.001l-0.002-0.001l-0.003-0.001l-0.003-0.001L52.143,7.32L52.14,7.319l-0.003-0.001 l-0.003-0.001l-0.045-0.018l-0.003-0.001l-0.003-0.001l-0.003-0.001l-0.003-0.001l-0.003-0.001L52.07,7.292l-0.003-0.001 l-0.003-0.001L52.06,7.288l-0.003-0.001l-0.003-0.002l-0.003-0.001l-0.003-0.001l-0.003-0.001L52.041,7.28l-0.083-0.033 l-0.003-0.001l-0.003-0.001l-0.003-0.001l-0.003-0.001l-0.004-0.001L51.938,7.24l-0.003-0.001l-0.003-0.001l-0.004-0.001 l-0.003-0.001l-0.003-0.001l-0.003-0.002l-0.003-0.001L51.913,7.23l-0.003-0.001l-0.003-0.001l-0.003-0.001l-0.003-0.001 l-0.003-0.002l-0.003-0.001L51.89,7.222L51.887,7.22l-0.003-0.001l-0.029-0.011l-0.003-0.001l-0.003-0.001l-0.003-0.001 l-0.003-0.001l-0.003-0.001L51.834,7.2l-0.003-0.001l-0.003-0.002l-0.003-0.001l-0.004-0.001l-0.003-0.001l-0.003-0.001 l-0.003-0.001l-0.006-0.003l-0.003-0.001l-0.003-0.001L51.674,7.14l-0.003-0.002l-0.007-0.002l-0.003-0.001l-0.003-0.001 l-0.003-0.001l-0.003-0.001l-0.003-0.002l-0.003-0.001l-0.004-0.001l-0.03-0.012l-0.003-0.001l-0.004-0.001l-0.003-0.001 L51.597,7.11l-0.003-0.001L51.59,7.107l-0.003-0.001l-0.003-0.001L51.58,7.104l-0.003-0.001l-0.003-0.001L51.569,7.1l-0.003-0.001 l-0.003-0.001l-0.003-0.001l-0.004-0.001l-0.079-0.029l-0.003-0.002l-0.003-0.001L51.462,7.06l-0.004-0.001l-0.003-0.001 l-0.003-0.001l-0.003-0.002l-0.003-0.001l-0.003-0.001l-0.003-0.001L51.435,7.05l-0.003-0.001l-0.003-0.001l-0.004-0.001 L51.42,7.045l-0.003-0.001l-0.003-0.001L51.41,7.041L51.407,7.04l-0.003-0.001L51.4,7.037l-0.004-0.001l-0.003-0.001l-0.003-0.001 l-0.017-0.006l-0.003-0.001l-0.003-0.001l-0.003-0.001l-0.003-0.001l-0.003-0.001L51.352,7.02l-0.003-0.001l-0.003-0.001 l-0.003-0.001l-0.003-0.001l-0.003-0.001l-0.004-0.001l-0.003-0.001L51.325,7.01l-0.003-0.001l-0.007-0.002l-0.003-0.001 l-0.095-0.034L51.213,6.97l-0.017-0.006l-0.003-0.001L51.19,6.962L51.187,6.96l-0.003-0.001L51.18,6.958l-0.003-0.001l-0.003-0.001 L51.17,6.954l-0.003-0.001l-0.003-0.001L51.16,6.951L51.156,6.95l-0.045-0.016l-0.003-0.001l-0.003-0.001L51.101,6.93l-0.004-0.001 l-0.003-0.001L51.09,6.926l-0.003-0.001l-0.003-0.001l-0.017-0.006l-0.003-0.001L51.06,6.916l-0.092-0.032l-0.003-0.001 L50.96,6.881L50.957,6.88l-0.003-0.001L50.95,6.877l-0.003-0.001l-0.003-0.001L50.94,6.874l-0.003-0.001l-0.003-0.001L50.93,6.87 l-0.003-0.001l-0.003-0.001l-0.004-0.001l-0.003-0.001l-0.003-0.001l-0.003-0.001l-0.003-0.001l-0.003-0.001l-0.003-0.001 l-0.003-0.001l-0.003-0.001L50.88,6.854l-0.003-0.001l-0.003-0.002L50.87,6.85l-0.003-0.001l-0.003-0.001l-0.004-0.001 l-0.003-0.001l-0.003-0.001l-0.004-0.001l-0.003-0.001L50.841,6.84l-0.004-0.001l-0.004-0.001l-0.003-0.001l-0.004-0.001 l-0.004-0.001L50.82,6.833l-0.004-0.001l-0.119-0.04L50.693,6.79L50.69,6.789l-0.004-0.001l-0.003-0.001l-0.003-0.001l-0.004-0.001 l-0.003-0.001l-0.003-0.001L50.665,6.78l-0.003-0.001l-0.003-0.001l-0.004-0.001L50.65,6.775l-0.031-0.01l-0.003-0.001 l-0.003-0.001l-0.003-0.001l-0.003-0.001l-0.004-0.001l-0.003-0.001l-0.003-0.001l-0.003-0.001l-0.003-0.001l-0.003-0.001 l-0.004-0.001l-0.003-0.001L50.574,6.75l-0.003-0.001l-0.003-0.001l-0.003-0.001l-0.007-0.002l-0.003-0.001l-0.095-0.031 l-0.003-0.001L50.451,6.71l-0.003-0.001l-0.003,0l-0.003-0.002l-0.004-0.001l-0.003-0.001L50.43,6.703l-0.003-0.001l-0.003-0.001 l-0.004-0.001l-0.003-0.001l-0.004-0.001l-0.003-0.001l-0.003-0.001l-0.004-0.001l-0.003-0.001l-0.004-0.001l-0.022-0.007 l-0.004-0.001l-0.003-0.001l-0.003-0.001L50.358,6.68l-0.003-0.001l-0.004-0.001l-0.004-0.001l-0.003-0.001L50.34,6.674 l-0.004-0.001l-0.003-0.001l-0.007-0.002l-0.004-0.001l-0.122-0.039l-0.004-0.001l-0.003-0.001L50.19,6.626l-0.004-0.001 l-0.003-0.001l-0.003-0.001l-0.004-0.001L50.172,6.62l-0.003-0.001l-0.004-0.001l-0.003-0.001l-0.003-0.001l-0.004-0.001 l-0.003-0.001l-0.004-0.001l-0.004-0.001l-0.027-0.009l-0.004-0.001l-0.003-0.001L50.105,6.6l-0.003-0.001l-0.003-0.001 l-0.004-0.001l-0.003,0l-0.003-0.001l-0.004-0.001l-0.003-0.001l-0.004-0.001l-0.003-0.001l-0.004-0.001l-0.003-0.001l-0.003-0.001 l-0.004-0.001l-0.003-0.001l-0.121-0.037l-0.003-0.001l-0.003-0.001l-0.004-0.001L49.92,6.542l-0.004-0.001L49.913,6.54 l-0.003-0.001l-0.004-0.001l-0.003-0.001l-0.003-0.001l-0.003-0.001l-0.004-0.001l-0.003-0.001l-0.026-0.008l-0.003-0.001 l-0.004-0.001L49.85,6.521L49.847,6.52l-0.003-0.001l-0.004-0.001l-0.004-0.001l-0.003-0.001l-0.004-0.001l-0.004-0.001 l-0.003-0.001l-0.004-0.001l-0.004,0L49.81,6.509l-0.003-0.001l-0.004-0.001l-0.127-0.038l-0.003-0.001l-0.004-0.001l-0.003-0.001 l-0.004-0.001l-0.004-0.001l-0.004-0.001l-0.003-0.001L49.646,6.46l-0.004-0.001l-0.004-0.001l-0.004-0.001l-0.003-0.001 l-0.004-0.001l-0.003-0.001L49.611,6.45l-0.003-0.001l-0.004-0.001L49.6,6.446l-0.004-0.001l-0.004-0.001l-0.003-0.001 l-0.004-0.001l-0.003,0L49.577,6.44l-0.003-0.001l-0.004-0.001l-0.003-0.001l-0.004-0.001l-0.004-0.001L49.55,6.432l-0.003-0.001 L49.543,6.43l-0.011-0.003l-0.004-0.001l-0.115-0.033l-0.004-0.001L49.406,6.39l-0.004,0l-0.004-0.001l-0.004-0.001L49.39,6.386 l-0.004-0.001l-0.003-0.001l-0.004-0.001l-0.004-0.001l-0.003-0.001l-0.004-0.001l-0.018-0.005l-0.003-0.001l-0.004-0.001 l-0.003-0.001L49.334,6.37L49.33,6.369l-0.004-0.001l-0.003-0.001l-0.004-0.001l-0.004-0.001l-0.004-0.001l-0.004-0.001 L49.15,6.318l-0.004-0.001l-0.004-0.001l-0.003-0.001l-0.004,0L49.13,6.313l-0.004-0.001l-0.004-0.001l-0.004,0l-0.004-0.001 l-0.004-0.001l-0.004-0.001l-0.004-0.001l-0.011-0.003l-0.004-0.001L49.084,6.3l-0.004,0l-0.004-0.001l-0.004-0.001l-0.004-0.001 l-0.004-0.001l-0.004-0.001l-0.004-0.001l-0.004-0.001l-0.004-0.001L49.045,6.29l-0.004-0.001l-0.004-0.001l-0.004-0.001 L49.03,6.285l-0.004-0.001l-0.004-0.001l-0.004-0.001l-0.004-0.001L49.01,6.28l-0.004-0.001l-0.004-0.001l-0.004-0.001 l-0.008-0.002l-0.004-0.001l-0.09-0.024l-0.004-0.001l-0.004-0.001l-0.004-0.001L48.88,6.245l-0.004-0.001l-0.004-0.001 l-0.004-0.001l-0.004-0.001L48.861,6.24l-0.004-0.001l-0.004-0.001l-0.004-0.001l-0.004,0l-0.004-0.001l-0.014-0.003L48.824,6.23 L48.82,6.229l-0.004-0.001l-0.004-0.001l-0.004-0.001l-0.004-0.001L48.8,6.224l-0.004-0.001l-0.004-0.001l-0.004-0.001L48.784,6.22 L48.78,6.219l-0.004-0.001l-0.004-0.001l-0.004-0.001l-0.004-0.001l-0.004,0l-0.004-0.001l-0.004-0.001L48.749,6.21l-0.004,0 L48.74,6.208l-0.004,0l-0.004-0.001l-0.004-0.001l-0.004-0.001l-0.096-0.025l-0.004-0.001l-0.007-0.002l-0.004-0.001l-0.004,0 l-0.004-0.001l-0.004,0l-0.004-0.001L48.593,6.17l-0.004-0.001l-0.004-0.001l-0.004-0.001l-0.004-0.001l-0.004-0.001L48.57,6.164 L48.516,6.15l-0.012-0.003c-0.149-0.038-0.3-0.075-0.451-0.111l-0.012-0.002l-0.024-0.006l-0.012-0.002l-0.012-0.003L47.981,6.02 l-0.216-0.05l-0.012-0.003l-0.055-0.012l-0.221-0.049l-0.055-0.012L47.2,5.845l-0.056-0.012l-0.168-0.035L46.92,5.787l-0.056-0.012 l-0.003,0l-0.014-0.003l-0.003,0l-0.004-0.001l-0.147-0.029l-0.004,0l-0.003,0l-0.003-0.001l-0.004-0.001l-0.003,0l-0.004,0 l-0.003-0.001l-0.003,0l-0.004,0l-0.003-0.001l-0.003,0l-0.004,0l-0.003-0.001l-0.003-0.001h-0.004L46.583,5.72l-0.228-0.043 l-0.057-0.01L46.07,5.626l-0.057-0.011l-0.23-0.04l-0.058-0.009l-0.173-0.029l-0.059-0.009l-0.058-0.009L45.378,5.51l-0.117-0.018 l-0.058-0.009l-0.059-0.009l-0.058-0.009l-0.118-0.018c-3.94,0.025-7.653,1.035-10.902,2.794c-3.427,1.855-6.342,4.536-8.471,7.768 c-0.822,1.251-2.504,1.599-3.755,0.776c-1.251-0.822-1.599-2.503-0.777-3.755c2.63-3.992,6.219-7.297,10.429-9.576 C35.559,1.252,40.201,0,45.116,0H89.33c9.229,0,17.617,3.774,23.697,9.854c6.078,6.079,9.852,14.467,9.852,23.696v36.11 c0,1.505-1.219,2.724-2.723,2.724H94.695v7.819c0,1.244-0.512,2.381-1.336,3.211l-0.018,0.017c-0.83,0.821-1.963,1.331-3.203,1.331 H69.689v24.344h-8.103V84.762H41.138c-1.249,0-2.385-0.513-3.21-1.337l-0.005-0.006l-0.005,0.006 c-0.825-0.825-1.336-1.965-1.336-3.222v-7.819H19.046L19.046,72.384z M3.836,19.386h45.032c0.515,0,1.004,0.105,1.454,0.292 c0.468,0.194,0.889,0.478,1.247,0.826l0.019,0.019c0.352,0.354,0.632,0.773,0.823,1.234c0.189,0.458,0.293,0.955,0.293,1.467V54.17 c0,0.389-0.06,0.771-0.172,1.133c-0.103,0.335-0.252,0.649-0.441,0.938c-0.046,0.101-0.1,0.197-0.16,0.287l-0.034,0.048 c-0.071,0.101-0.151,0.197-0.241,0.287l-0.003,0.003c-0.08,0.08-0.161,0.146-0.245,0.206c-0.023,0.017-0.046,0.031-0.071,0.045 l-0.072,0.047c-0.324,0.264-0.693,0.476-1.091,0.623c-0.411,0.151-0.852,0.235-1.306,0.235H3.836c-0.516,0-1.005-0.105-1.455-0.292 c-0.468-0.194-0.889-0.479-1.246-0.826l-0.009-0.009l-0.002,0.002c-0.354-0.354-0.638-0.775-0.833-1.244 C0.103,55.197,0,54.703,0,54.185V23.238c0-0.519,0.103-1.013,0.292-1.468c0.195-0.47,0.479-0.89,0.833-1.244 c0.019-0.019,0.038-0.036,0.058-0.053c0.345-0.333,0.746-0.598,1.187-0.781c0.399-0.166,0.828-0.265,1.277-0.287 C3.707,19.393,3.771,19.386,3.836,19.386L3.836,19.386z M4.071,50.722L17.56,37.194L4.071,26.197V50.722L4.071,50.722z M20.726,39.787L6.619,53.934h39.384L32.534,39.805l-4.452,3.79l0,0.001c-0.37,0.327-0.838,0.497-1.312,0.501 c-0.459,0.005-0.925-0.146-1.311-0.461L20.726,39.787L20.726,39.787z M35.646,37.161l12.973,13.609V26.112L35.646,37.161 L35.646,37.161z M7.168,23.472l19.56,15.95l18.711-15.95H7.168L7.168,23.472z M89.248,72.384H70.307h-28.28v6.931h47.221V72.384 L89.248,72.384z M73.029,66.938h18.943h25.461V33.55c0-7.726-3.164-14.75-8.258-19.846C104.08,8.609,97.057,5.447,89.33,5.447 H60.116l0.056,0.04l0.057,0.039l0.011,0.008l0.101,0.071l0.056,0.04l0.057,0.04l0.002,0.002L60.614,5.8l0.006,0.004l0.055,0.041 l0.003,0.002l0.006,0.005l0.148,0.108l0.006,0.004l0.002,0.002l0.056,0.041l0.055,0.041l0.003,0.002l0.004,0.002l0.001,0l0.1,0.076 l0.007,0.006l0.001,0l0.136,0.104l0.002,0.002l0.002,0.001l0.091,0.07l0.156,0.122l0.061,0.048l0.004,0.002l0.002,0.002 l0.006,0.004l0.003,0.002l0.003,0.002l0.009,0.006l0.003,0.002l0.122,0.097l0.003,0.002l0.003,0.002l0.009,0.007l0.002,0.002 l0.003,0.002L61.69,6.62l0.003,0.002l0.003,0.002l0.003,0.002l0.003,0.002l0.05,0.041l0.002,0.001l0.001,0.001l0.155,0.125 l0.064,0.053l0.002,0.001l0.003,0.002l0.003,0.003l0.003,0.002l0.003,0.003l0.003,0.002l0.002,0.001l0.142,0.119l0.004,0.002 l0.002,0.002l0.006,0.005l0.004,0.002l0.002,0.002l0.004,0.002l0.002,0.002l0.004,0.002l0.002,0.002l0.002,0.001l0.004,0.003 l0.029,0.025l0.004,0.003l0.002,0.002l0.004,0.003l0.004,0.002l0.002,0.003l0.004,0.002l0.004,0.003l0.002,0.002 c0.057,0.047,0.113,0.095,0.168,0.143l0.002,0.002l0.004,0.003l0.004,0.003l0.002,0.002l0.004,0.002l0.006,0.005l0.002,0.003 l0.004,0.002l0.004,0.003l0.002,0.002l0.004,0.003c0.051,0.045,0.104,0.09,0.156,0.136l0.002,0.002l0.006,0.005l0.004,0.002 L62.6,7.381l0.002,0.003l0.004,0.002l0.004,0.002l0.002,0.003l0.004,0.003l0.002,0.003l0.016,0.012l0.018,0.015l0.002,0.003 l0.004,0.002l0.002,0.002l0.004,0.002l0.002,0.002l0.002,0.002l0.004,0.002l0.154,0.137l0.002,0.002l0.004,0.002l0.002,0.003 l0.004,0.002l0.004,0.003l0.002,0.002l0.014,0.011l0.002,0.002l0.01,0.009l0.004,0.002l0.002,0.003l0.16,0.145l0.002,0.002 l0.004,0.003l0.006,0.005l0.002,0.003l0.004,0.002l0.002,0.003l0.004,0.002l0.004,0.003l0.016,0.014l0.008,0.008l0.004,0.003 L63.09,7.82l0.004,0.003l0.004,0.003C63.16,7.884,63.223,7.942,63.285,8l0.004,0.003l0.004,0.003v0.001l0.002,0.001l0.004,0.003 l0.002,0.003l0.004,0.003l0.004,0.003l0.002,0.003l0.004,0.003l0.004,0.003c0.057,0.053,0.113,0.107,0.17,0.161l0.002,0.003 l0.004,0.002L63.496,8.2L63.5,8.203l0.004,0.003l0.002,0.003l0.004,0.003c4.543,4.332,7.656,10.193,9.406,17.512 c0.072,0.247,0.113,0.508,0.113,0.779V66.938L73.029,66.938z"></path>
    </g>
  </symbol>
  <symbol xmlns="http://www.w3.org/2000/svg" viewBox="0 0 50 2" id="line">
    <path fill="#63c3ef" d="M0 0h50v2H0z"></path>
  </symbol>
  <symbol version="1.1" id="newspaper-jobs" xmlns="http://www.w3.org/2000/svg" xmlns:xlink="http://www.w3.org/1999/xlink" x="0px" y="0px" xml:space="preserve" viewBox="0 0 122.88 101.16">
    <g>
      <path d="M35.34,16.5h72.75v30.73H35.34V16.5L35.34,16.5z M48.71,24.37h4.48v8.16c0,1.71-0.14,3.02-0.44,3.92 c-0.29,0.89-0.88,1.65-1.77,2.27c-0.89,0.62-2.02,0.93-3.4,0.93c-1.46,0-2.59-0.21-3.39-0.62c-0.8-0.41-1.42-1.01-1.86-1.8 c-0.44-0.79-0.7-1.76-0.77-2.93l4.26-0.6c0.01,0.66,0.06,1.15,0.17,1.47c0.1,0.32,0.28,0.58,0.53,0.78 c0.17,0.13,0.41,0.19,0.73,0.19c0.5,0,0.87-0.19,1.1-0.58c0.23-0.39,0.35-1.04,0.35-1.95V24.37L48.71,24.37z M55.3,31.9 c0-2.45,0.66-4.36,1.97-5.73c1.32-1.37,3.15-2.05,5.5-2.05c2.41,0,4.26,0.67,5.56,2.01c1.3,1.34,1.95,3.23,1.95,5.64 c0,1.76-0.28,3.19-0.85,4.32c-0.57,1.12-1.39,2-2.47,2.62c-1.08,0.63-2.42,0.94-4.02,0.94c-1.63,0-2.98-0.27-4.05-0.81 c-1.07-0.54-1.94-1.4-2.6-2.57C55.63,35.12,55.3,33.65,55.3,31.9L55.3,31.9z M59.76,31.91c0,1.52,0.27,2.61,0.81,3.27 c0.55,0.66,1.29,0.99,2.22,0.99c0.96,0,1.71-0.33,2.23-0.97c0.53-0.65,0.79-1.81,0.79-3.5c0-1.41-0.28-2.45-0.82-3.1 c-0.55-0.65-1.3-0.98-2.24-0.98c-0.9,0-1.63,0.33-2.17,0.99C60.03,29.28,59.76,30.38,59.76,31.91L59.76,31.91z M72.4,24.37h8.37 c1.39,0,2.46,0.36,3.21,1.08c0.75,0.72,1.12,1.61,1.12,2.67c0,0.89-0.27,1.65-0.8,2.28c-0.35,0.43-0.88,0.76-1.56,1.01 c1.04,0.26,1.8,0.7,2.29,1.34c0.49,0.63,0.73,1.43,0.73,2.38c0,0.78-0.17,1.48-0.52,2.1c-0.35,0.62-0.83,1.11-1.43,1.48 c-0.38,0.22-0.94,0.39-1.7,0.49c-1.01,0.14-1.67,0.21-2,0.21H72.4V24.37L72.4,24.37z M76.9,30.27h1.95c0.7,0,1.18-0.13,1.46-0.37 c0.27-0.25,0.41-0.61,0.41-1.09c0-0.44-0.14-0.78-0.41-1.03c-0.27-0.25-0.75-0.37-1.43-0.37H76.9V30.27L76.9,30.27z M76.9,36.17 h2.28c0.77,0,1.31-0.14,1.63-0.43c0.32-0.28,0.47-0.66,0.47-1.14c0-0.44-0.15-0.8-0.47-1.07c-0.31-0.27-0.86-0.41-1.65-0.41H76.9 V36.17L76.9,36.17z M87.02,34.43l4.24-0.28c0.09,0.71,0.28,1.26,0.56,1.63c0.46,0.61,1.12,0.91,1.97,0.91 c0.64,0,1.13-0.15,1.47-0.47c0.35-0.31,0.52-0.67,0.52-1.08c0-0.39-0.16-0.74-0.49-1.05c-0.33-0.31-1.09-0.59-2.28-0.87 c-1.96-0.45-3.35-1.06-4.19-1.82c-0.84-0.76-1.26-1.72-1.26-2.9c0-0.77,0.22-1.5,0.65-2.18c0.43-0.69,1.08-1.23,1.94-1.62 c0.86-0.39,2.05-0.59,3.55-0.59c1.85,0,3.25,0.36,4.22,1.07c0.97,0.71,1.54,1.85,1.73,3.41l-4.2,0.26 c-0.11-0.68-0.35-1.18-0.7-1.49c-0.36-0.31-0.85-0.47-1.48-0.47c-0.52,0-0.91,0.12-1.17,0.34c-0.26,0.23-0.39,0.51-0.39,0.84 c0,0.24,0.11,0.45,0.32,0.64c0.21,0.2,0.7,0.38,1.49,0.55c1.95,0.44,3.35,0.88,4.19,1.33c0.84,0.45,1.46,1,1.84,1.67 c0.38,0.66,0.58,1.4,0.58,2.23c0,0.96-0.26,1.85-0.77,2.67c-0.51,0.81-1.23,1.43-2.15,1.85c-0.92,0.42-2.08,0.63-3.48,0.63 c-2.46,0-4.16-0.49-5.1-1.48C87.68,37.2,87.14,35.95,87.02,34.43L87.02,34.43z M23.42,91.7c-0.67,2.24-1.63,4.05-2.8,5.46h88.47 l0.04,0c3.19-0.18,5.57-1.03,7.16-2.54c1.56-1.48,2.43-3.69,2.62-6.62V3.97H24.36v13.58v66.48C24.36,87.43,24.4,88.42,23.42,91.7 L23.42,91.7z M13.15,101.13c-0.45,0.03-0.91,0.03-1.36,0.01c-1.82-0.11-3.61-0.67-5.23-1.62c-3.55-2.09-6.29-6.09-6.54-11.32 C0.01,88.12,0,88.03,0,87.95v-70.4c0-1.1,0.89-1.98,1.98-1.98H20.4V1.98c0-1.1,0.89-1.98,1.98-1.98h98.52 c1.1,0,1.98,0.89,1.98,1.98v86.07c0,0.1-0.01,0.21-0.02,0.31c-0.27,3.9-1.55,6.95-3.84,9.13c-2.28,2.17-5.5,3.38-9.67,3.62 c-0.08,0.01-0.17,0.02-0.26,0.02H13.15L13.15,101.13z M12.05,97.19c0.1-0.02,0.21-0.03,0.32-0.03h0.72 c0.79-0.08,1.56-0.3,2.28-0.68c4.41-2.31,5.02-7.95,5.02-12.42V19.53H3.97v68.41c0,0.02,0,0.05,0,0.07 c0.19,3.76,2.12,6.62,4.61,8.09c1.08,0.64,2.26,1.01,3.43,1.08L12.05,97.19L12.05,97.19z M35.8,60.85c-1.1,0-1.98-0.89-1.98-1.98 c0-1.1,0.89-1.98,1.98-1.98h30.26c1.1,0,1.98,0.89,1.98,1.98c0,1.1-0.89,1.98-1.98,1.98H35.8L35.8,60.85z M74.73,60.85 c-1.1,0-1.99-0.89-1.99-1.99s0.89-1.99,1.99-1.99h32.63c1.1,0,1.99,0.89,1.99,1.99s-0.89,1.99-1.99,1.99H74.73L74.73,60.85z M74.73,72.36c-1.1,0-1.99-0.89-1.99-1.99c0-1.1,0.89-1.99,1.99-1.99h32.63c1.1,0,1.99,0.89,1.99,1.99c0,1.1-0.89,1.99-1.99,1.99 H74.73L74.73,72.36z M74.73,83.87c-1.1,0-1.99-0.89-1.99-1.99c0-1.1,0.89-1.99,1.99-1.99h32.63c1.1,0,1.99,0.89,1.99,1.99 c0,1.1-0.89,1.99-1.99,1.99H74.73L74.73,83.87z M35.8,83.87c-1.1,0-1.98-0.89-1.98-1.98c0-1.1,0.89-1.98,1.98-1.98h30.26 c1.1,0,1.98,0.89,1.98,1.98c0,1.1-0.89,1.98-1.98,1.98H35.8L35.8,83.87z M36.76,72.36c-1.1,0-1.98-0.89-1.98-1.98 c0-1.1,0.89-1.98,1.98-1.98h30.26c1.1,0,1.98,0.89,1.98,1.98c0,1.1-0.89,1.98-1.98,1.98H36.76L36.76,72.36z"></path>
    </g>
  </symbol>
  <symbol version="1.1" id="quotes" xmlns="http://www.w3.org/2000/svg" xmlns:xlink="http://www.w3.org/1999/xlink" x="0px" y="0px" xml:space="preserve" viewBox="0 0 508.044 508.044">
    <g>
      <g>
        <path d="M0.108,352.536c0,66.794,54.144,120.938,120.937,120.938c66.794,0,120.938-54.144,120.938-120.938
			s-54.144-120.937-120.938-120.937c-13.727,0-26.867,2.393-39.168,6.61C109.093,82.118,230.814-18.543,117.979,64.303
			C-7.138,156.17-0.026,348.84,0.114,352.371C0.114,352.426,0.108,352.475,0.108,352.536z"></path>
        <path d="M266.169,352.536c0,66.794,54.144,120.938,120.938,120.938s120.938-54.144,120.938-120.938S453.9,231.599,387.106,231.599
			c-13.728,0-26.867,2.393-39.168,6.61C375.154,82.118,496.875-18.543,384.04,64.303C258.923,156.17,266.034,348.84,266.175,352.371
			C266.175,352.426,266.169,352.475,266.169,352.536z"></path>
      </g>
    </g>
    <g></g>
    <g></g>
    <g></g>
    <g></g>
    <g></g>
    <g></g>
    <g></g>
    <g></g>
    <g></g>
    <g></g>
    <g></g>
    <g></g>
    <g></g>
    <g></g>
    <g></g>
  </symbol>
  <symbol version="1.1" id="rotate" xmlns="http://www.w3.org/2000/svg" xmlns:xlink="http://www.w3.org/1999/xlink" x="0px" y="0px" xml:space="preserve" viewBox="0 0 122.88 45.59">
    <g>
      <path d="M105.14,8.16c15.07,5.35,14.31,14.26-6.59,19.42c-4.28,1.06-8.52,2.04-13.64,2.64v6.07 c5.9-0.73,10.92-2.08,15.85-3.28c30.37-7.36,26.92-20.93,5.06-27.4C92.61,1.71,76.16,0.04,62.46,0 C49.59-0.04,35.04,1.16,22.43,4.38c-58.73,15,13.09,35.33,42.34,34.21v7l10.17-10.18v-2.16L64.77,23.09v7.47 c-14.93,0.13-86.53-8.93-41.68-23.5C33.44,3.7,51.73,2.71,62.72,2.73C74.93,2.75,93.62,4.07,105.14,8.16L105.14,8.16z"></path>
    </g>
  </symbol>
  <symbol version="1.1" id="right-arrow" xmlns="http://www.w3.org/2000/svg" xmlns:xlink="http://www.w3.org/1999/xlink" x="0px" y="0px" xml:space="preserve" viewBox="0 0 47.255 47.255">
    <g>
      <path d="M12.314,47.255c-0.256,0-0.512-0.098-0.707-0.293c-0.391-0.391-0.391-1.023,0-1.414l21.92-21.92l-21.92-21.92
		c-0.391-0.391-0.391-1.023,0-1.414s1.023-0.391,1.414,0L35.648,22.92c0.391,0.391,0.391,1.023,0,1.414L13.021,46.962
		C12.825,47.157,12.57,47.255,12.314,47.255z"></path>
    </g>
    <g></g>
    <g></g>
    <g></g>
    <g></g>
    <g></g>
    <g></g>
    <g></g>
    <g></g>
    <g></g>
    <g></g>
    <g></g>
    <g></g>
    <g></g>
    <g></g>
    <g></g>
  </symbol>
  <symbol version="1.1" id="settings" xmlns="http://www.w3.org/2000/svg" xmlns:xlink="http://www.w3.org/1999/xlink" x="0px" y="0px" xml:space="preserve" viewBox="0 0 485.656 485.656">
    <g>
      <g>
        <path d="M334.512,312h-200c-2.122,0-4.156,0.844-5.656,2.344l-96,96l11.312,11.312L137.824,328h187.888
			c-1.664,9.496-6.888,24-23.2,24h-88v16h88c31.64,0,40-31.4,40-48C342.512,315.582,338.93,312,334.512,312z"></path>
      </g>
    </g>
    <g>
      <g>
        <path d="M436.168,258.344c-3.124-3.123-8.188-3.123-11.312,0l-72,72l11.312,11.312l65.712-65.712
			c10.828,14.37,8.629,34.68-5.024,46.4L331.2,416H166.512c-2.122,0-4.156,0.844-5.656,2.344l-56,56l11.312,11.312L169.824,432
			h164.688c2.122,0,4.156-0.844,5.656-2.344l96-96C465.96,303.864,449.192,271.368,436.168,258.344z"></path>
      </g>
    </g>
    <g>
      <g>
        <path d="M390.512,112H361.76c-2.193-7.348-5.139-14.45-8.792-21.192l20.344-20.344c3.123-3.124,3.123-8.188,0-11.312
			L339.36,25.208c-3.124-3.123-8.188-3.123-11.312,0l-20.344,20.344c-6.741-3.658-13.843-6.607-21.192-8.8V8c0-4.418-3.582-8-8-8
			h-48c-4.418,0-8,3.582-8,8v28.752c-7.349,2.193-14.451,5.142-21.192,8.8l-20.344-20.344c-3.124-3.123-8.188-3.123-11.312,0
			l-33.952,33.944c-3.123,3.124-3.123,8.188,0,11.312l20.352,20.344c-3.655,6.742-6.604,13.844-8.8,21.192h-28.752
			c-4.418,0-8,3.582-8,8v48c0,4.418,3.582,8,8,8h28.752c2.193,7.348,5.139,14.45,8.792,21.192l-20.344,20.344
			c-3.123,3.124-3.123,8.188,0,11.312l33.952,33.952c3.174,3.001,8.138,3.001,11.312,0l20.344-20.352
			c6.742,3.655,13.844,6.604,21.192,8.8V280c0,4.418,3.582,8,8,8h48c4.418,0,8-3.582,8-8v-28.752
			c7.348-2.194,14.449-5.14,21.192-8.792l20.344,20.344c1.5,1.5,3.534,2.344,5.656,2.344s4.156-0.844,5.656-2.344l33.944-33.952
			c3.123-3.124,3.123-8.188,0-11.312l-20.344-20.344c3.655-6.742,6.604-13.844,8.8-21.192h28.752c4.418,0,8-3.582,8-8v-48
			C398.512,115.582,394.93,112,390.512,112z M382.513,160h-26.888c-3.709,0.001-6.931,2.551-7.784,6.16
			c-2.366,9.945-6.309,19.447-11.68,28.144c-1.95,3.157-1.473,7.241,1.152,9.864l19.032,19.024l-22.64,22.64l-19.024-19.04
			c-2.623-2.625-6.707-3.102-9.864-1.152c-8.695,5.378-18.197,9.325-28.144,11.688c-3.609,0.853-6.159,4.075-6.16,7.784V272h-32
			v-26.88c-0.001-3.709-2.551-6.931-6.16-7.784c-9.947-2.363-19.449-6.31-28.144-11.688c-3.157-1.95-7.241-1.473-9.864,1.152
			l-19.024,19.04l-22.64-22.64l19.032-19.04c2.625-2.623,3.102-6.707,1.152-9.864c-5.371-8.698-9.314-18.199-11.68-28.144
			c-0.853-3.609-4.075-6.159-7.784-6.16h-26.888v-32H153.4c3.709-0.001,6.931-2.551,7.784-6.16
			c2.366-9.945,6.309-19.446,11.68-28.144c1.95-3.157,1.473-7.241-1.152-9.864L152.68,64.8l22.632-22.624l19.032,19.032
			c2.623,2.625,6.707,3.102,9.864,1.152c8.693-5.379,18.196-9.323,28.144-11.68c3.609-0.853,6.159-4.075,6.16-7.784V16h32v26.896
			c0.002,3.711,2.555,6.934,6.168,7.784c9.948,2.357,19.451,6.301,28.144,11.68c3.157,1.95,7.241,1.473,9.864-1.152l19.024-19.032
			L356.345,64.8l-19.032,19.032c-2.625,2.623-3.102,6.707-1.152,9.864c5.371,8.698,9.314,18.199,11.68,28.144
			c0.853,3.609,4.075,6.159,7.784,6.16h26.888V160z"></path>
      </g>
    </g>
    <g>
      <g>
        <path d="M254.512,96c-26.51,0-48,21.49-48,48s21.491,48,48,48c26.499-0.026,47.974-21.501,48-48
			C302.512,117.49,281.022,96,254.512,96z M254.512,176c-17.673,0-32-14.327-32-32c0-17.673,14.327-32,32-32
			c17.673,0,32,14.327,32,32C286.512,161.673,272.185,176,254.512,176z"></path>
      </g>
    </g>
    <g></g>
    <g></g>
    <g></g>
    <g></g>
    <g></g>
    <g></g>
    <g></g>
    <g></g>
    <g></g>
    <g></g>
    <g></g>
    <g></g>
    <g></g>
    <g></g>
    <g></g>
  </symbol>
  <symbol version="1.1" id="search" xmlns="http://www.w3.org/2000/svg" xmlns:xlink="http://www.w3.org/1999/xlink" x="0px" y="0px" xml:space="preserve" viewBox="0 0 52.966 52.966">
    <path d="M51.704,51.273L36.845,35.82c3.79-3.801,6.138-9.041,6.138-14.82c0-11.58-9.42-21-21-21s-21,9.42-21,21s9.42,21,21,21
	c5.083,0,9.748-1.817,13.384-4.832l14.895,15.491c0.196,0.205,0.458,0.307,0.721,0.307c0.25,0,0.499-0.093,0.693-0.279
	C52.074,52.304,52.086,51.671,51.704,51.273z M21.983,40c-10.477,0-19-8.523-19-19s8.523-19,19-19s19,8.523,19,19
	S32.459,40,21.983,40z"></path>
    <g></g>
    <g></g>
    <g></g>
    <g></g>
    <g></g>
    <g></g>
    <g></g>
    <g></g>
    <g></g>
    <g></g>
    <g></g>
    <g></g>
    <g></g>
    <g></g>
    <g></g>
  </symbol>
  <symbol id="snap" xmlns="http://www.w3.org/2000/svg" viewBox="0 0 512 512">
    <g fill="rgb(0,0,0)">
      <path d="m460.646 10h-416.708c-18.714 0-33.938 15.521-33.938 34.6v420.122c0 19.078 15.224 34.6 33.89 34.6 3.139.025 315.346 2.492 438.5 2.679h.03a19.282 19.282 0 0 0 13.827-5.813 19.917 19.917 0 0 0 5.753-14.418l-7.421-437.793c-.33-18.735-15.553-33.977-33.933-33.977zm-416.708 12h416.708c11.879 0 21.719 9.954 21.935 22.184l6.511 384.244-96.777-99.462a33.563 33.563 0 0 0 -54.35-3.721l-45.03 53.805a21.4 21.4 0 0 1 -18.452 7.764 21.636 21.636 0 0 1 -17.013-10.959l-81.253-140.576a33.583 33.583 0 0 0 -56.1-3.578l-98.117 113.313v-300.414c0-12.462 9.841-22.6 21.938-22.6zm443.767 465.764a7.377 7.377 0 0 1 -5.282 2.236h-.011c-123.12-.187-435.288-2.654-438.474-2.679-12.1 0-21.938-10.138-21.938-22.6v-101.375l107.321-123.946.271-.337a21.585 21.585 0 0 1 36.236 2.221l81.252 140.576a33.576 33.576 0 0 0 55.057 4.892l45.03-53.805a21.57 21.57 0 0 1 35.25 2.83l.356.591 106.615 109.572.612 36.028a8.007 8.007 0 0 1 -2.295 5.796z"></path>
      <path d="m284.988 218.5c29.7 0 53.864-24.671 53.864-54.995s-24.164-54.995-53.864-54.995-53.863 24.671-53.863 54.995 24.163 54.995 53.863 54.995zm0-97.99c23.084 0 41.864 19.287 41.864 42.995s-18.78 43-41.864 43-41.863-19.288-41.863-42.995 18.775-42.996 41.863-42.996z"></path>
    </g>
  </symbol>
  <symbol xmlns="http://www.w3.org/2000/svg" viewBox="0 0 16 11" id="testimonial.jpg">
    <defs></defs>
    <path id="Shape_10_copy_5" d="M2,4L6,8l8-8"></path>
  </symbol>
  <symbol version="1.1" id="tick" xmlns="http://www.w3.org/2000/svg" xmlns:xlink="http://www.w3.org/1999/xlink" x="0px" y="0px" xml:space="preserve" viewBox="0 0 512 512">
    <g>
      <g>
        <g>
          <path d="M41.073,152.466c-1.425-3.903-5.074-6.551-9.226-6.696c-4.175-0.132-7.977,2.245-9.669,6.039
				C7.468,184.791,0.009,219.844,0.009,255.99c0,48.964,13.875,96.559,40.124,137.639c25.548,39.983,61.564,72.053,104.158,92.743
				c1.418,0.69,2.941,1.025,4.454,1.025c2.474,0,4.921-0.9,6.836-2.629c3.085-2.785,4.172-7.164,2.747-11.068L41.073,152.466z
				 M20.408,255.99c0-24.264,3.652-47.994,10.883-70.837l98.5,269.854C61.706,412.039,20.408,337.973,20.408,255.99z"></path>
          <path d="M345.376,480.765l-75.473-206.771c-1.471-4.028-5.3-6.702-9.58-6.702c-0.032,0-0.064,0-0.096,0
				c-4.318,0.041-8.143,2.796-9.55,6.88l-73.753,214.293c-0.907,2.633-0.697,5.523,0.581,7.998c1.278,2.475,3.513,4.319,6.185,5.106
				C207.225,508.492,231.555,512,256.001,512c29.053,0,57.656-4.883,85.015-14.514c2.907-1.024,5.195-3.307,6.226-6.212
				c1.031-2.905,0.692-6.121-0.922-8.747C345.897,481.836,345.594,481.272,345.376,480.765z M256.001,491.602
				c-18.944,0-37.814-2.291-56.238-6.818l60.841-176.773l63.36,173.59C301.937,488.241,279.126,491.602,256.001,491.602z"></path>
          <path d="M373.292,403.888c4.314,0,8.167-2.717,9.612-6.788l27.138-76.438c13.018-33.396,19.346-60.555,19.346-83.022
				c0-33.87-10.023-51.413-18.869-66.891c-0.054-0.094-0.109-0.189-0.167-0.283c-0.982-1.597-1.959-3.175-2.926-4.737
				c-10.569-17.065-19.698-31.803-19.698-47.571c0-16.074,11.879-33.424,31.069-33.424c0.317,0,0.804,0.041,1.321,0.085
				c0.404,0.034,0.805,0.067,1.209,0.093c4.329,0.281,8.341-2.2,10.038-6.179c1.696-3.979,0.699-8.597-2.492-11.52
				C381.573,23.87,320.18,0,256.001,0C169.666,0,89.708,43.127,42.115,115.365c-2.031,3.083-2.238,7.022-0.541,10.3
				c1.696,3.277,5.032,5.383,8.72,5.505c6.281,0.208,11.719,0.314,16.16,0.314c23.686,0,58.376-2.55,65.182-3.068
				c1.089,1.962,1.193,6.64,0.137,8.39c-2.685,0.3-14.319,1.553-26.893,2.209c-3.185,0.166-6.108,1.811-7.902,4.449
				c-1.794,2.636-2.251,5.961-1.235,8.984l80.48,239.565c1.395,4.153,5.286,6.951,9.668,6.951c0.004,0,0.008,0,0.011,0
				c4.386-0.005,8.278-2.813,9.665-6.973l53.793-161.323c0.738-2.214,0.696-4.613-0.122-6.8l-29.269-78.243
				c-1.416-3.782-4.928-6.373-8.959-6.608c-11.584-0.675-22.772-1.988-24.791-2.231c-0.919-1.946-0.707-6.437,0.377-8.368
				c7.002,0.524,42.099,3.064,64.336,3.064c23.69,0,58.382-2.55,65.184-3.068c1.09,1.961,1.196,6.641,0.139,8.389
				c-2.677,0.3-14.328,1.554-26.896,2.211c-3.193,0.166-6.123,1.821-7.916,4.469c-1.792,2.648-2.239,5.983-1.207,9.009
				l83.404,244.49c1.401,4.108,5.25,6.879,9.59,6.906C373.25,403.888,373.27,403.888,373.292,403.888z M303.83,158.48
				c8.698-0.708,14.988-1.437,15.375-1.483c11.726-1.386,19.321-12.743,18.061-27.005c-1.206-13.633-10.034-22.696-21.423-22.014
				c-0.065,0.004-0.133,0.008-0.198,0.013c-0.395,0.031-39.714,3.092-64.716,3.092c-23.477,0-63.551-3.063-63.953-3.093
				c-0.061-0.005-0.122-0.009-0.184-0.012c-11.588-0.695-20.652,9.083-21.489,23.228c-0.836,14.126,6.861,24.914,18.351,25.817
				c1.624,0.197,9.756,1.164,19.509,1.907l25.701,68.706l-43.012,128.993l-66.564-198.143c8.736-0.709,15.053-1.442,15.444-1.488
				c11.724-1.386,19.316-12.747,18.055-27.012c-1.207-13.629-10.032-22.697-21.419-22.007c-0.065,0.004-0.133,0.008-0.198,0.013
				c-0.374,0.031-35.884,2.795-60.879,3.071c44.547-57.103,112.646-90.666,185.71-90.666c51.924,0,101.868,16.978,142.757,48.187
				c-18.452,8.187-31.428,27.326-31.428,49.574c0,21.573,11.053,39.419,22.755,58.312c0.927,1.497,1.864,3.01,2.806,4.541
				c8.29,14.509,16.097,28.269,16.097,56.629c0,19.642-6.058,45.128-18.008,75.755c-0.038,0.098-0.074,0.196-0.109,0.295
				l-17.388,48.972L303.83,158.48z"></path>
          <path d="M480.631,133.175c-2.361-4.308-7.461-6.319-12.133-4.786c-4.669,1.538-7.577,6.188-6.917,11.059
				c1.038,7.665,1.566,15.707,1.566,23.901c0,26.824-5.711,53.594-17.971,84.247c-0.06,0.15-0.116,0.302-0.169,0.454l-75.07,217.056
				c-1.393,4.031-0.132,8.504,3.164,11.213c1.868,1.534,4.166,2.319,6.479,2.319c1.765,0,3.539-0.458,5.132-1.388
				c38.017-22.163,69.889-53.921,92.171-91.842c22.969-39.088,35.109-83.839,35.109-129.417
				C511.991,213.087,501.147,170.617,480.631,133.175z M399.158,443.029l65.051-188.086c9.331-23.375,15.137-44.781,17.736-65.726
				c6.365,21.591,9.65,44.116,9.65,66.774C491.595,329.489,456.798,398.762,399.158,443.029z"></path>
        </g>
      </g>
    </g>
    <g>
      <g>
        <path d="M262.286,369.734c-5.342-1.782-11.119,1.108-12.901,6.451l-1.36,4.079c-1.781,5.343,1.108,11.119,6.451,12.901
			c1.07,0.357,2.157,0.526,3.226,0.526c4.27,0,8.25-2.703,9.675-6.977l1.36-4.079C270.518,377.292,267.629,371.516,262.286,369.734z
			"></path>
      </g>
    </g>
    <g>
      <g>
        <path d="M249.707,407.472c-5.344-1.786-11.119,1.108-12.901,6.45l-16.999,50.996c-1.781,5.343,1.108,11.119,6.451,12.9
			c1.07,0.358,2.157,0.527,3.226,0.527c4.27,0,8.25-2.703,9.675-6.977l16.998-50.996
			C257.939,415.029,255.05,409.253,249.707,407.472z"></path>
      </g>
    </g>
    <g></g>
    <g></g>
    <g></g>
    <g></g>
    <g></g>
    <g></g>
    <g></g>
    <g></g>
    <g></g>
    <g></g>
    <g></g>
    <g></g>
    <g></g>
    <g></g>
    <g></g>
  </symbol>
</svg>